<?xml version="1.0" encoding="UTF-8" standalone="no"?>
<!-- Created with Inkscape (http://www.inkscape.org/) -->

<svg
   xmlns:dc="http://purl.org/dc/elements/1.1/"
   xmlns:cc="http://creativecommons.org/ns#"
   xmlns:rdf="http://www.w3.org/1999/02/22-rdf-syntax-ns#"
   xmlns:svg="http://www.w3.org/2000/svg"
   xmlns="http://www.w3.org/2000/svg"
   xmlns:sodipodi="http://sodipodi.sourceforge.net/DTD/sodipodi-0.dtd"
   xmlns:inkscape="http://www.inkscape.org/namespaces/inkscape"
   width="744.09448"
   height="744.09448"
   id="svg6048"
   version="1.1"
   inkscape:version="0.91 r13725"
   sodipodi:docname="rouleau_peinture.svg">
  <defs
     id="defs3" />
  <sodipodi:namedview
     inkscape:document-units="mm"
     id="base"
     pagecolor="#ffffff"
     bordercolor="#666666"
     borderopacity="1.0"
     inkscape:pageopacity="0.0"
     inkscape:pageshadow="2"
     inkscape:zoom="0.79156614"
     inkscape:cx="372.04724"
     inkscape:cy="372.04724"
     inkscape:current-layer="layer1"
     showgrid="false"
     units="mm"
     inkscape:window-width="1344"
     inkscape:window-height="791"
     inkscape:window-x="0"
     inkscape:window-y="0"
     inkscape:window-maximized="1"
     showguides="true"
     inkscape:guide-bbox="true" />
  <metadata
     id="metadata4">
    <rdf:RDF>
      <cc:Work
         rdf:about="">
        <dc:format>image/svg+xml</dc:format>
        <dc:type
           rdf:resource="http://purl.org/dc/dcmitype/StillImage" />
        <dc:title />
      </cc:Work>
    </rdf:RDF>
  </metadata>
  <g
     inkscape:label="Layer 1"
     inkscape:groupmode="layer"
     id="layer1"
     transform="translate(0,-308.26772)">
    <g
       id="g4137">
      <path
         sodipodi:nodetypes="ccccccccc"
         inkscape:connector-curvature="0"
         id="path5165-7-2"
         d="m 53.170141,387.85359 c 33.373712,50.57294 56.745079,101.98001 80.716809,153.33654 l 28.56388,100.04712 54.51434,-6.62936 13.04212,-18.82327 c -7.83101,-41.31158 2.71792,-67.63029 19.93737,-71.15743 l -54.07842,-43.44591 c -30.6076,-51.69517 -61.7578,-103.01469 -85.0752,-159.75886 -27.025216,-27.49166 -79.702889,15.90047 -57.620899,46.43117 z"
         style="fill:#000000;stroke:#000000;stroke-width:7.251472;stroke-linecap:butt;stroke-linejoin:miter;stroke-miterlimit:4;stroke-dasharray:none;stroke-opacity:1" />
      <path
         style="fill:#ffd42a;fill-opacity:1;stroke:#000000;stroke-width:7.25314951;stroke-linecap:butt;stroke-linejoin:miter;stroke-miterlimit:4;stroke-dasharray:none;stroke-opacity:1"
         d="M 141.86977,1018.4739 C 315.31462,988.82877 488.69611,960.80028 661.82886,939.07769 713.66049,926.06778 714.09506,791.96616 645.87442,764.32198 467.15095,791.35117 290.39088,811.8158 114.6375,828.91413 64.926631,846.06151 44.875201,1018.0681 141.86977,1018.4739 Z"
         id="path4138"
         inkscape:connector-curvature="0"
         sodipodi:nodetypes="ccccc" />
      <ellipse
         ry="63.924229"
         rx="32.332211"
         cy="925.79852"
         cx="122.02591"
         id="path4142"
         style="color:#000000;display:inline;overflow:visible;visibility:visible;fill:#000000;fill-opacity:1;fill-rule:evenodd;stroke:#000000;stroke-width:6.16941881;stroke-linecap:butt;stroke-linejoin:miter;stroke-miterlimit:4;stroke-dasharray:none;stroke-dashoffset:0;stroke-opacity:1;marker:none;enable-background:accumulate" />
      <path
         style="fill:#c8b7b7;stroke:#000000;stroke-width:7.251472;stroke-linecap:butt;stroke-linejoin:miter;stroke-miterlimit:4;stroke-dasharray:none;stroke-opacity:1"
         d="m 236.78052,672.40677 c 4.60261,7.37685 5.651,13.90116 -5.30425,17.54455 L 63.708781,772.44686 c -27.973072,16.64543 -31.600575,35.71437 -26.793087,55.62267 18.608822,58.59926 34.416919,89.59296 58.09082,101.35401 l 23.780656,-1.81494 c 5.80928,-5.34345 9.03109,-15.81354 -1.1272,-26.78699 l -20.867194,1.88032 C 80.798983,879.63635 68.143699,851.75227 56.46605,822.45715 54.900859,810.11487 59.530004,798.86268 78.824398,790.18797 L 242.51817,710.74682 c 10.76337,-7.19706 25.87736,-10.77709 16.94886,-34.35135 -6.31021,-14.70592 -46.56501,-98.92281 -48.65698,-96.61525 -4.20819,6.83267 -12.08229,11.64653 -12.15588,24.74412 9.24538,26.51124 24.28375,41.4769 38.12635,67.88243 z"
         id="path4140"
         inkscape:connector-curvature="0"
         sodipodi:nodetypes="ccccccccccccccc" />
    </g>
  </g>
</svg>
